# xmcd
#
# Track frame offsets:
#	150
#	11688
#	22500
#	35718
#	46296
#	56961
#	67206
#	75048
#	85230
#	97692
#	108900
#	118221
#	130221
#	144357
#	156705
#
# Disc length: 2253 seconds
#
# Revision: 0
# Processed by: cddbd v1.5.2PL0 Copyright (c) Steve Scherf et al.
# Submitted via: dBpowerAMP V4.0
#
DISCID=c008cb0f
DTITLE=Country Cd1 - Gold 
DYEAR=1900
DGENRE=Country
TTITLE0=kenny rogers - me and Bobby mc Gee
TTITLE1=Dolly Parton - it was not good who made honky tonk angels
TTITLE2=Lynn Anderson - rose garden
TTITLE3=Patsy Cline - i' ve loved and lost again
TTITLE4=Billie Jo Spears - I'm so lonesome i could cry
TTITLE5=Dave Duddley - Six days on the road
TTITLE6=Don Gibson - Blue blue day
TTITLE7=Ferlin husky - Gone
TTITLE8=Faron young - It's four in the morning
TTITLE9=Johnny Tillotson - Raining in my heart
TTITLE10=Willie Nelson - One step beyond
TTITLE11=Holly Dunn - There goes my heart again
TTITLE12=Tex Ritter - Conversation with a gun
TTITLE13=Johnny paycheck - Take this job and shove it
TTITLE14=Frankie Laine - High Noon
EXTD=
EXTT0=
EXTT1=
EXTT2=
EXTT3=
EXTT4=
EXTT5=
EXTT6=
EXTT7=
EXTT8=
EXTT9=
EXTT10=
EXTT11=
EXTT12=
EXTT13=
EXTT14=
PLAYORDER=
